<?xml version="1.0" encoding="utf-8"?>
<!-- Generator: Adobe Illustrator 21.1.0, SVG Export Plug-In . SVG Version: 6.00 Build 0)  -->
<svg version="1.1" id="Слой_1" xmlns="http://www.w3.org/2000/svg" xmlns:xlink="http://www.w3.org/1999/xlink" x="0px" y="0px"
	 viewBox="0 0 24 24" style="filter: drop-shadow(0 0 2px rgba(0, 0, 0, 0.3));" xml:space="preserve" fill="#ff0028"> 
<style type="text/css">
	.st0{fill:none;}
</style>
<path class="st0" d="M0,0h24v24H0V0z"/>
<path d="M12,0C5.4,0,0,5.4,0,12s5.4,12,12,12c6.6,0,12-5.4,12-12S18.6,0,12,0z M12,21.6c-5.3,0-9.6-4.3-9.6-9.6S6.7,2.4,12,2.4
	s9.6,4.3,9.6,9.6S17.3,21.6,12,21.6z"/>
<path d="M12.5,7H11v6l5.3,3.1l0.8-1.2l-4.5-2.7V7z"/>
</svg>
